<svg viewBox="0 0 1000 470" xmlns="http://www.w3.org/2000/svg" role="img" aria-label="Second-dataset port to Schmidt 2022: three model-free probes reproduce above their null on Schmidt's own floor; the machinery ports, but R1 is cross-well technical not the cross-donor floor." font-family="-apple-system,Segoe UI,Roboto,Helvetica,Arial,sans-serif">
<rect x="0" y="0" width="1000" height="470" fill="#ffffff"/>
<text x="40" y="42" font-size="20" font-weight="700" fill="#12151a">Second-dataset port (Schmidt 2022) — the audit machinery ports</text>
<text x="40" y="66" font-size="13.5" fill="#4a515b">Identical probes + nulls, no retrain, on Schmidt's OWN recomputed floor (primary human T, CRISPRa, 73 genes). All</text>
<text x="40" y="85" font-size="13.5" fill="#4a515b">clear their permutation floor (p ≤ 1/501).</text>
<line x1="100" y1="140" x2="100" y2="330" stroke="#d5dae1"/>
<line x1="100" y1="330" x2="470" y2="330" stroke="#c9d0da"/>
<text x="94" y="144.0" text-anchor="end" font-size="11.5" fill="#8a8f98">1.0</text>
<text x="94" y="239.0" text-anchor="end" font-size="11.5" fill="#8a8f98">0.5</text>
<text x="94" y="334" text-anchor="end" font-size="11.5" fill="#8a8f98">0</text>
<rect x="300" y="104" width="12" height="12" rx="2" fill="#3f9e6b"/><text x="318" y="114" font-size="12" fill="#5a616b">nostim</text>
<rect x="384" y="104" width="12" height="12" rx="2" fill="#2e8b57"/><text x="402" y="114" font-size="12" fill="#5a616b">stim</text>
<rect x="130" y="194.5" width="42" height="135.5" rx="2" fill="#3f9e6b"/><text x="151" y="188.5" text-anchor="middle" font-size="12" fill="#3f9e6b">0.71</text>
<rect x="176" y="186.8" width="42" height="143.2" rx="2" fill="#2e8b57"/><text x="197" y="180.8" text-anchor="middle" font-size="12" fill="#2e8b57" font-weight="700">0.75</text>
<text x="174" y="348" text-anchor="middle" font-size="12" fill="#3b424c">R1 · reproducibility</text>
<text x="174" y="363" text-anchor="middle" font-size="12" fill="#3b424c">(cross-WELL)</text>
<rect x="246" y="154.2" width="42" height="175.8" rx="2" fill="#3f9e6b"/><text x="267" y="148.2" text-anchor="middle" font-size="12" fill="#3f9e6b">0.93</text>
<rect x="292" y="152.7" width="42" height="177.3" rx="2" fill="#2e8b57"/><text x="313" y="146.7" text-anchor="middle" font-size="12" fill="#2e8b57" font-weight="700">0.93</text>
<text x="290" y="348" text-anchor="middle" font-size="12" fill="#3b424c">R2 · reliability</text>
<text x="290" y="363" text-anchor="middle" font-size="12" fill="#3b424c">ceiling</text>
<rect x="362" y="166.1" width="42" height="163.9" rx="2" fill="#3f9e6b"/><text x="383" y="160.1" text-anchor="middle" font-size="12" fill="#3f9e6b">0.86</text>
<rect x="408" y="154.0" width="42" height="176.0" rx="2" fill="#2e8b57"/><text x="429" y="148.0" text-anchor="middle" font-size="12" fill="#2e8b57" font-weight="700">0.93</text>
<text x="406" y="348" text-anchor="middle" font-size="12" fill="#3b424c">R3 · relational</text>
<text x="406" y="363" text-anchor="middle" font-size="12" fill="#3b424c">object S</text>
<rect x="600" y="140" width="360" height="200" rx="8" fill="#f4dddb" stroke="#d9a9a4"/>
<text x="620" y="168" font-size="15" font-weight="700" fill="#a8423e">Machinery ports — floor NOT re-tested</text>
<text x="620" y="194" font-size="12.5" fill="#5a2a26"><tspan font-weight="700">R1 is cross-WELL</tspan> (technical replicate), not the</text>
<text x="620" y="211" font-size="12.5" fill="#5a2a26">cross-DONOR biological floor Marson's 0.03</text>
<text x="620" y="228" font-size="12.5" fill="#5a2a26">measured — the public form has no donor</text>
<text x="620" y="245" font-size="12.5" fill="#5a2a26">demux. 0.71 vs 0.03 is a <tspan font-weight="700">non-comparison</tspan>.</text>
<text x="620" y="271" font-size="12" fill="#5a2a26">Also: same lab · CRISPRa vs CRISPRi ·</text>
<text x="620" y="288" font-size="12" fill="#5a2a26">selected strong hits · 3 of 7 probes</text>
<text x="620" y="305" font-size="12" fill="#5a2a26">(P4/P5 N/A; P1/P2/P7 deferred).</text>
<text x="40" y="388" font-size="12.5" fill="#5a616b">The instrument RUNS on a second, same-consortium primary-cell Perturb-seq dataset and produces a coherent,</text>
<text x="40" y="406" font-size="12.5" fill="#5a616b">null-discriminating scorecard — machinery portability, not evidence the narrow-recoverable-signal finding</text>
<text x="40" y="424" font-size="12.5" fill="#5a616b">generalizes. Next step: a donor-demuxed second dataset.</text>
<text x="40" y="450" font-size="11.5" fill="#8a8f98">results/gpa2_scorecard.csv · scripts/gpa2_stage2b_probes.py · GPA2_PORT.md</text>
</svg>
